<svg xmlns="http://www.w3.org/2000/svg" width="128" height="208" viewBox="0 0 128 208" role="img" aria-label="Red obstacle car">
  <rect width="128" height="208" rx="32" fill="#1c232b"/>
  <path d="M24 58c0-27 18-46 40-46s40 19 40 46v78c0 30-17 54-40 54s-40-24-40-54V58Z" fill="#ef4f4f"/>
  <path d="M39 66c4-18 13-30 25-30s21 12 25 30L78 84H50L39 66Z" fill="#bfe9ff"/>
  <path d="M40 134h48c-4 20-12 34-24 34s-20-14-24-34Z" fill="#26313b"/>
  <rect x="9" y="48" width="17" height="42" rx="8" fill="#0e141a"/>
  <rect x="102" y="48" width="17" height="42" rx="8" fill="#0e141a"/>
  <rect x="9" y="128" width="17" height="44" rx="8" fill="#0e141a"/>
  <rect x="102" y="128" width="17" height="44" rx="8" fill="#0e141a"/>
  <rect x="35" y="18" width="12" height="10" rx="4" fill="#fff3a8"/>
  <rect x="81" y="18" width="12" height="10" rx="4" fill="#fff3a8"/>
  <path d="M46 102h36" stroke="#ffc9c9" stroke-width="5" stroke-linecap="round"/>
</svg>
