<svg xmlns="http://www.w3.org/2000/svg" viewBox="0 0 180 160" role="img" aria-labelledby="title desc">
  <title id="title">Bass guitar</title>
  <desc id="desc">A simple illustrated bass guitar.</desc>
  <rect width="180" height="160" rx="18" fill="#fff8ec" />
  <g transform="rotate(-28 90 80)">
    <path
      d="M47 96c-14-5-22-18-18-32 4-13 18-20 31-16 5-13 19-21 33-17 16 5 24 22 19 38-4 15-17 24-33 23-7 9-20 11-32 4z"
      fill="#d89b32"
      stroke="#172026"
      stroke-width="5"
      stroke-linejoin="round"
    />
    <circle cx="69" cy="65" r="15" fill="#172026" opacity=".88" />
    <circle cx="69" cy="65" r="7" fill="#fff8ec" />
    <rect x="82" y="61" width="58" height="14" rx="7" fill="#8d552f" stroke="#172026" stroke-width="4" />
    <rect x="136" y="57" width="28" height="22" rx="6" fill="#4a2c1d" stroke="#172026" stroke-width="4" />
    <path d="M161 50h12M161 61h12M161 73h12M161 84h12" stroke="#172026" stroke-width="4" stroke-linecap="round" />
    <path d="M43 84h107M42 76h109M43 68h108M45 60h105" stroke="#f7f1e4" stroke-width="2" stroke-linecap="round" />
    <path d="M97 56v24M112 56v24M127 56v24" stroke="#172026" stroke-width="2" opacity=".55" />
    <rect x="47" y="84" width="42" height="9" rx="4.5" fill="#172026" opacity=".86" />
  </g>
</svg>
